<?xml version="1.0" standalone="no"?>
<!DOCTYPE svg PUBLIC "-//W3C//DTD SVG 20010904//EN"
 "http://www.w3.org/TR/2001/REC-SVG-20010904/DTD/svg10.dtd">
<svg version="1.0" xmlns="http://www.w3.org/2000/svg"
 width="266.000000pt" height="266.000000pt" viewBox="0 0 266.000000 266.000000"
 preserveAspectRatio="xMidYMid meet">
<metadata>
Created by potrace 1.14, written by Peter Selinger 2001-2017
</metadata>
<g transform="translate(0.000000,266.000000) scale(0.100000,-0.100000)"
fill="#000000" stroke="none">
<path d="M457 1883 c-4 -3 -7 -15 -7 -25 0 -17 -19 -65 -54 -139 -7 -14 -12
-33 -10 -42 1 -10 -1 -15 -6 -12 -9 6 -22 -23 -15 -35 3 -4 -2 -13 -10 -20
-12 -10 -13 -16 -4 -27 10 -11 8 -12 -6 -6 -14 5 -17 3 -12 -10 3 -9 2 -17 -3
-17 -6 0 -10 -7 -10 -15 0 -8 -4 -15 -10 -15 -5 0 -6 -7 -3 -17 4 -10 2 -14
-4 -10 -6 4 -10 -6 -9 -26 1 -23 7 -33 21 -36 11 -2 23 -8 27 -15 6 -8 8 -7 8
2 0 6 5 12 12 12 9 0 9 -3 0 -12 -17 -17 -15 -33 3 -18 8 7 15 9 16 4 0 -5 2
-17 4 -26 2 -10 0 -17 -3 -17 -20 3 -32 -2 -27 -11 3 -5 0 -7 -7 -5 -9 4 -14
-2 -15 -16 -2 -18 0 -19 15 -7 9 7 20 17 24 22 4 6 4 -10 2 -35 -3 -24 -5 -51
-6 -59 0 -8 -6 -21 -12 -29 -8 -12 -8 -13 2 -7 9 5 13 3 11 -5 -3 -29 2 -37
31 -42 19 -4 30 -13 31 -24 0 -10 2 -26 4 -35 2 -10 -2 -18 -8 -18 -7 0 -4 -5
6 -11 9 -5 17 -15 17 -21 0 -9 -3 -9 -12 0 -7 7 -17 12 -22 12 -6 0 -3 -5 7
-11 9 -6 15 -14 12 -20 -4 -5 -2 -9 3 -9 16 0 23 31 11 46 -6 8 -8 14 -4 14
11 0 65 -47 59 -52 -2 -3 3 -5 11 -5 18 0 20 14 3 20 -7 2 -10 8 -6 12 4 4 14
2 23 -5 10 -8 15 -9 15 -1 0 6 -5 11 -11 11 -5 0 -7 5 -3 12 5 8 13 5 25 -10
14 -18 18 -19 23 -6 3 8 10 12 16 9 5 -3 10 -1 10 4 0 14 -13 14 -27 0 -9 -9
-12 -7 -10 9 2 27 27 25 45 -3 11 -17 13 -17 8 -2 -4 12 -2 17 6 14 7 -2 12
-10 10 -16 -1 -7 2 -10 8 -6 17 11 -11 42 -36 39 -13 -1 -22 2 -21 8 1 6 -4
13 -12 16 -8 2 -11 0 -7 -6 3 -6 2 -13 -4 -17 -6 -4 -8 -11 -5 -16 4 -5 1 -9
-4 -9 -6 0 -11 6 -11 13 0 8 -4 7 -10 -3 -7 -11 -10 -11 -10 -2 0 7 -5 10 -11
6 -8 -4 -7 -9 2 -15 8 -5 10 -9 5 -9 -5 0 -18 8 -28 17 -15 14 -21 14 -27 4
-6 -10 -10 -9 -14 3 -4 9 -3 15 1 14 15 -4 52 14 52 25 0 8 -3 8 -12 -1 -16
-16 -31 -15 -25 1 3 8 -1 14 -8 14 -7 0 -11 -6 -8 -13 2 -6 -1 -15 -7 -19 -8
-5 -11 1 -8 16 2 18 9 24 26 23 12 -1 22 3 22 8 0 5 4 7 9 4 5 -3 14 1 21 9
15 19 33 9 25 -14 -4 -13 1 -17 22 -16 14 0 28 6 31 13 2 7 -2 10 -11 6 -8 -3
-18 -1 -21 4 -3 5 6 10 20 10 22 0 24 -4 20 -30 -3 -19 -1 -28 7 -25 7 2 11
12 9 22 -3 15 0 14 19 -4 13 -12 26 -21 31 -21 13 0 9 18 -4 23 -10 4 -10 6
-1 6 19 1 26 -18 13 -34 -7 -8 -9 -15 -6 -15 4 0 2 -10 -5 -21 -16 -32 -24
-77 -22 -136 2 -70 6 -92 14 -87 4 2 10 0 14 -6 3 -5 15 -10 26 -10 14 0 18
-4 13 -12 -5 -9 -2 -9 9 1 9 7 17 11 17 7 0 -16 69 32 122 85 56 57 73 89 66
126 -3 15 -13 18 -71 17 -75 0 -91 -9 -82 -45 5 -22 11 -24 42 -21 l36 5 -21
-27 c-27 -36 -104 -96 -113 -90 -12 7 -2 76 21 136 22 60 76 148 91 148 5 0 9
6 9 13 0 7 10 14 22 14 13 1 18 -1 13 -5 -6 -4 -11 -21 -13 -38 -3 -27 1 -33
25 -39 19 -4 31 -2 39 9 6 9 19 16 28 16 10 0 27 5 39 11 18 9 20 9 10 -2 -7
-7 -13 -17 -13 -23 0 -5 8 0 18 10 19 22 42 29 42 14 0 -6 -5 -10 -11 -10 -5
0 -8 -4 -4 -9 3 -5 -2 -17 -11 -25 -8 -9 -12 -16 -8 -16 4 0 0 -8 -9 -18 -10
-10 -14 -22 -10 -27 5 -4 2 -5 -4 -1 -7 4 -13 3 -13 -2 0 -5 -10 -12 -22 -16
-21 -5 -22 -6 -5 -18 15 -11 16 -18 6 -46 -12 -35 -6 -48 24 -54 14 -2 24 9
40 49 18 43 26 52 52 56 16 3 31 4 33 2 1 -1 4 -25 6 -54 3 -55 10 -67 40 -73
17 -3 19 4 22 52 1 30 6 80 9 110 14 109 22 142 37 152 7 4 9 8 4 8 -5 0 -2 8
5 17 12 15 12 16 -6 9 -15 -5 -17 -4 -9 4 22 22 51 -4 47 -42 -2 -18 -4 -39
-5 -45 -1 -7 -4 -13 -8 -13 -3 0 -7 -8 -7 -17 -1 -10 -10 -53 -19 -96 -9 -42
-15 -79 -12 -82 2 -3 18 -7 34 -11 25 -5 30 -2 31 16 1 12 10 45 20 73 l18 52
3 -35 c4 -39 35 -70 62 -63 10 3 27 26 39 51 12 26 31 58 42 72 l20 25 -5 -30
c-11 -58 -15 -121 -8 -132 4 -5 16 -13 28 -17 19 -6 22 0 34 66 7 40 17 84 23
98 6 14 9 31 8 38 -1 6 3 12 9 12 6 0 9 4 5 9 -3 5 -1 12 4 16 5 3 8 14 6 25
-3 18 -1 19 18 8 12 -7 25 -13 30 -14 4 -1 10 -2 13 -3 4 0 1 -7 -5 -14 -6 -8
-8 -17 -4 -20 3 -4 1 -7 -6 -7 -7 0 -11 6 -8 13 3 8 -3 13 -17 14 -11 0 -15
-1 -8 -4 6 -3 12 -11 12 -19 0 -8 6 -14 13 -14 8 0 7 -3 -3 -10 -9 -6 -20 -5
-29 3 -12 10 -14 9 -8 -5 3 -9 1 -19 -6 -22 -7 -3 -2 -3 11 0 16 4 22 1 22
-10 0 -9 -5 -16 -11 -16 -7 0 -9 -9 -5 -24 3 -13 2 -46 -4 -72 -7 -37 -6 -51
4 -59 7 -5 11 -17 9 -25 -4 -11 -2 -12 5 -2 9 14 27 18 147 36 74 11 78 13 56
25 -14 8 -47 11 -87 9 -72 -4 -77 2 -50 67 11 25 22 35 38 37 13 0 43 2 67 4
82 5 68 27 -19 28 -43 1 -60 5 -60 15 0 8 6 11 18 6 13 -5 14 -4 5 6 -9 9 -7
21 8 51 11 21 18 42 15 46 -3 5 6 8 19 8 18 0 21 -3 14 -12 -7 -8 -6 -14 3
-17 9 -4 10 -6 1 -6 -8 -1 -10 -8 -6 -18 6 -15 4 -16 -9 -5 -13 10 -18 9 -29
-5 -13 -16 -12 -17 3 -5 14 11 19 10 33 -10 11 -14 15 -17 12 -6 -4 10 -2 20
3 23 6 4 10 1 10 -4 0 -6 6 -10 13 -8 16 3 43 39 39 52 -2 6 3 4 10 -4 10 -11
10 -14 0 -18 -6 -3 -9 -10 -6 -15 4 -6 3 -8 -2 -5 -6 3 -10 -9 -10 -28 0 -19
3 -32 7 -29 4 2 9 -2 12 -9 3 -7 20 -14 38 -16 42 -3 82 -9 89 -11 3 -1 8 -2
13 -1 4 0 7 -4 7 -9 0 -6 -6 -10 -12 -10 -10 0 -10 -2 0 -8 13 -9 -24 -50 -66
-72 -22 -11 -23 -10 -13 8 8 16 6 21 -13 30 -36 16 -62 -9 -57 -54 1 -12 37
-26 76 -30 32 -3 102 32 121 61 10 15 19 40 20 55 2 24 -4 31 -38 46 -22 10
-48 17 -58 17 -13 -1 -18 5 -17 18 1 10 5 19 10 19 5 0 7 -6 4 -14 -4 -9 2
-12 19 -10 13 1 26 -2 30 -7 3 -5 15 -14 27 -19 21 -11 21 -11 3 4 -11 9 -16
16 -12 16 5 0 3 7 -4 15 -10 12 -16 13 -28 3 -13 -11 -14 -11 -7 1 6 10 4 12
-5 6 -8 -5 -11 -4 -7 2 3 5 -7 9 -23 9 -25 0 -28 -2 -17 -15 10 -12 9 -14 -7
-8 -15 6 -17 5 -8 -6 9 -10 8 -14 -1 -14 -25 0 -15 32 21 69 26 27 39 35 48
27 8 -7 14 -7 19 1 3 5 1 10 -6 10 -7 0 -10 3 -6 6 3 3 11 3 17 -1 8 -5 8 -10
0 -20 -8 -10 -8 -15 0 -20 6 -4 9 -13 6 -21 -7 -18 23 -14 58 9 24 16 31 15
27 -6 -1 -5 3 -5 9 -2 6 4 9 13 6 21 -5 12 -1 12 23 0 16 -9 32 -12 36 -8 5 4
4 1 0 -7 -6 -11 -4 -13 8 -8 10 3 17 2 17 -3 0 -10 40 -8 58 4 7 4 12 4 13 -1
0 -4 3 -1 7 8 5 10 15 13 29 10 17 -5 20 -10 13 -21 -9 -13 -11 -13 -20 0 -6
10 -10 11 -10 3 0 -18 39 -55 53 -50 7 2 10 12 9 22 -3 16 -1 17 12 6 9 -8 16
-10 16 -6 0 8 -48 48 -67 55 -11 5 -10 9 5 23 18 16 20 16 33 1 12 -15 11 -16
-11 -10 -23 6 -24 6 -5 -5 11 -7 26 -19 34 -27 13 -12 16 -12 28 4 7 10 11 24
8 32 -6 18 26 11 42 -8 9 -12 14 -13 24 -2 10 9 10 15 1 24 -16 16 -15 28 3
28 8 0 15 5 15 10 0 7 -6 7 -19 0 -26 -13 -27 -13 -28 11 -2 16 1 18 12 9 10
-8 15 -8 21 1 4 6 0 16 -10 21 -9 5 -16 14 -16 19 0 6 4 7 10 4 6 -3 7 1 4 9
-8 20 -15 20 -40 1 -16 -13 -16 -14 -1 -9 19 7 24 -11 5 -22 -7 -4 -8 -3 -4 4
5 8 1 10 -10 5 -16 -6 -16 -7 0 -19 11 -8 13 -14 7 -19 -6 -3 -11 0 -11 7 0
10 -2 10 -9 -1 -5 -7 -14 -11 -20 -7 -7 5 -9 1 -5 -9 5 -11 10 -13 19 -5 8 6
16 7 19 2 3 -5 -5 -14 -19 -20 -18 -8 -25 -8 -29 1 -3 7 -3 1 0 -12 4 -16 3
-21 -5 -16 -7 4 -10 20 -7 38 3 19 0 35 -7 39 -9 6 -8 8 3 8 13 0 13 1 0 10
-12 8 -12 10 -1 10 11 0 11 3 0 18 -13 16 -13 16 5 2 18 -14 18 -13 12 10 -6
19 -5 21 3 10 10 -13 11 -13 11 0 0 18 37 43 45 31 3 -5 2 -16 -1 -25 -6 -16
11 -23 19 -8 7 11 -22 72 -34 72 -6 0 -9 6 -6 13 3 7 -4 19 -14 25 -15 10 -19
10 -17 0 2 -7 8 -16 13 -20 6 -5 5 -8 -3 -8 -7 0 -10 -5 -7 -10 9 -14 -24 -25
-37 -12 -8 8 -5 9 9 6 17 -5 19 -1 17 38 -1 24 -3 45 -3 47 -1 2 -8 -2 -16 -9
-13 -11 -14 -10 -9 5 5 13 4 16 -4 11 -7 -4 -12 -2 -12 3 0 6 -17 27 -38 47
-20 20 -31 32 -23 28 11 -5 13 -3 8 12 -7 19 -7 19 8 0 8 -10 12 -23 9 -27 -3
-5 -1 -9 3 -9 8 0 32 34 34 47 0 5 6 15 12 23 6 8 7 12 3 8 -9 -8 -43 72 -53
125 -3 15 -21 40 -40 56 -29 24 -39 27 -61 20 -15 -5 -53 -16 -85 -25 -48 -13
-63 -23 -90 -59 -18 -25 -35 -44 -39 -45 -4 0 -8 15 -10 33 -3 30 -5 32 -38
30 -19 0 -75 -7 -125 -15 -111 -17 -114 -22 -108 -148 3 -52 0 -97 -6 -108 -8
-15 -7 -21 2 -25 19 -7 23 -183 3 -202 -22 -22 -29 -18 -12 7 16 23 22 107 9
109 -8 1 -77 7 -104 8 -9 1 -20 8 -23 17 -3 8 -2 12 4 9 6 -4 5 6 -1 22 -7 15
-11 41 -10 57 1 15 -3 34 -9 41 -8 9 -8 15 0 20 6 3 7 11 4 17 -4 6 -9 36 -11
67 -5 78 -7 81 -50 81 -53 0 -62 -9 -67 -66 -3 -27 -7 -58 -9 -69 -2 -11 0
-25 5 -32 5 -7 7 -17 3 -23 -12 -20 -15 -60 -5 -60 6 0 8 -5 5 -10 -4 -6 -8
-22 -11 -36 -3 -18 -1 -23 7 -18 7 4 9 3 6 -2 -3 -6 -41 -10 -83 -10 -76 1
-78 2 -78 26 0 14 4 37 8 52 5 16 5 36 0 45 -4 10 -9 50 -10 88 -3 126 2 115
-53 115 -47 0 -49 -1 -56 -32 -4 -18 -7 -36 -6 -40 0 -5 -3 -8 -8 -8 -5 0 -12
-7 -15 -16 -5 -14 -4 -15 9 -4 13 11 13 8 -1 -25 -8 -20 -11 -34 -6 -31 5 3 9
-1 9 -9 0 -8 -4 -12 -8 -10 -4 3 -10 -2 -13 -11 -4 -9 -2 -13 5 -8 8 4 9 -1 3
-17 -4 -13 -8 -34 -9 -46 0 -13 -4 -23 -8 -23 -5 0 -5 -5 -1 -12 4 -6 3 -8 -4
-4 -9 5 -17 32 -37 126 0 3 -4 23 -8 45 -15 79 -37 142 -49 142 -7 0 -38 4
-68 7 l-56 7 -57 -120 c-32 -67 -60 -121 -63 -121 -2 0 -2 12 0 28 2 15 7 62
11 104 6 64 4 82 -11 108 -10 16 -23 30 -29 31 -16 1 -41 6 -64 14 -15 4 -21
2 -21 -8 0 -8 -11 -39 -24 -70 -14 -30 -22 -58 -19 -61 4 -3 1 -6 -6 -6 -8 0
-11 -7 -7 -15 3 -8 1 -15 -5 -15 -6 0 -8 -4 -5 -8 2 -4 0 -14 -5 -22 -7 -11
-8 -6 -5 15 3 17 8 60 11 97 6 59 4 70 -16 97 -12 16 -33 32 -48 36 -14 3 -33
8 -42 11 -8 2 -18 1 -22 -3z m1865 -228 c2 3 5 -1 5 -8 0 -7 -7 -19 -16 -27
-13 -13 -14 -12 -8 4 4 10 2 26 -5 35 -11 14 -11 14 3 4 9 -7 18 -11 21 -8z
m-142 -15 c-12 -8 -11 -10 5 -11 11 -1 24 -1 28 0 5 1 6 -2 3 -7 -10 -16 -66
-2 -66 16 0 4 10 9 22 9 18 2 20 0 8 -7z m-313 -25 c0 -8 -4 -12 -9 -9 -5 3
-6 10 -3 15 9 13 12 11 12 -6z m113 -49 c0 -21 -13 -14 -16 8 -1 7 -5 24 -8
37 -7 24 -7 24 8 -1 9 -14 15 -34 16 -44z m-1595 34 c3 -5 1 -10 -4 -10 -6 0
-11 5 -11 10 0 6 2 10 4 10 3 0 8 -4 11 -10z m-12 -82 c-2 -5 -10 -8 -18 -8
-8 0 -16 3 -18 8 -3 4 5 7 18 7 13 0 21 -3 18 -7z m-3 -38 c0 -5 -8 -6 -17 -3
-15 6 -16 4 -5 -9 9 -12 10 -18 2 -23 -6 -4 -14 -4 -17 -1 -4 3 -1 6 6 6 7 0
10 4 6 10 -3 5 -12 7 -20 3 -8 -3 -15 0 -15 7 0 6 4 9 9 5 5 -3 12 -1 16 5 8
13 35 13 35 0z m15 -21 c-4 -13 -3 -19 2 -16 5 4 10 -1 10 -9 0 -13 -2 -13
-14 -1 -8 7 -11 21 -7 30 9 25 17 21 9 -4z m1664 -4 c17 -18 19 -25 8 -25 -15
0 -46 30 -31 30 5 0 2 5 -6 10 -8 5 -10 10 -5 10 6 0 21 -12 34 -25z m353 -37
c-7 -7 -12 -8 -12 -2 0 6 3 14 7 17 3 4 9 5 12 2 2 -3 -1 -11 -7 -17z m-973
-61 c-2 -25 -1 -43 3 -41 4 2 10 -1 14 -7 3 -6 0 -15 -7 -20 -12 -7 -11 -9 1
-9 13 0 13 -1 0 -10 -8 -5 -10 -10 -4 -10 6 0 11 -7 11 -15 0 -8 -4 -15 -9
-15 -4 0 -8 -5 -8 -11 0 -8 4 -8 14 0 8 7 13 21 11 32 -4 21 10 26 18 7 4 -8
6 -7 6 4 1 9 -5 19 -11 21 -10 4 -10 6 0 6 23 2 24 -28 3 -58 -24 -33 -27 -45
-8 -36 6 4 1 -2 -12 -13 -15 -12 -21 -24 -16 -32 5 -8 4 -11 -3 -6 -6 3 -16
-2 -21 -13 -14 -26 -14 -34 1 -25 6 4 8 3 5 -3 -4 -6 -15 -13 -24 -15 -15 -4
-18 1 -16 31 1 20 3 56 4 81 1 25 4 49 7 54 11 19 7 53 -5 53 -16 0 -16 -2 -2
-30 10 -21 10 -21 -5 -3 -9 11 -16 24 -16 29 0 4 -4 6 -10 2 -5 -3 -6 -13 -3
-22 4 -11 3 -14 -6 -9 -7 5 -10 14 -7 22 3 8 -1 14 -9 14 -8 0 -15 -7 -15 -15
0 -8 -4 -15 -10 -15 -5 0 -7 6 -4 13 3 8 -2 14 -11 14 -10 0 -14 -6 -10 -16 3
-11 0 -10 -10 3 -15 20 -15 20 -15 0 0 -15 -2 -16 -10 -4 -14 22 -6 24 78 26
42 1 80 2 85 3 4 1 7 24 7 53 0 38 3 49 11 41 6 -6 10 -31 8 -56z m948 47 c-3
-3 -12 -4 -19 -1 -8 3 -5 6 6 6 11 1 17 -2 13 -5z m-1807 -85 c0 -5 -4 -9 -8
-9 -5 0 -9 7 -9 15 0 8 4 12 9 9 4 -3 8 -9 8 -15z m1901 -6 c12 -16 12 -17 -2
-6 -9 7 -20 9 -24 5 -5 -4 -5 -1 -1 6 9 16 11 15 27 -5z m-814 -18 c4 -4 3 -5
-4 -1 -7 4 -18 -2 -25 -13 -11 -18 -13 -18 -25 -3 -7 9 -13 20 -13 24 0 9 58
4 67 -7z m-1090 -10 c0 -8 -4 -15 -9 -15 -10 0 -11 14 -1 23 9 10 10 9 10 -8z
m337 -13 c3 -5 -1 -9 -9 -9 -8 0 -12 4 -9 9 3 4 7 8 9 8 2 0 6 -4 9 -8z m-321
-19 c-5 -12 -3 -14 7 -8 9 6 11 4 5 -4 -5 -9 -11 -9 -17 -3 -6 6 -7 15 -4 21
11 17 16 13 9 -6z m709 10 c-6 -3 -9 -10 -5 -16 4 -7 -2 -5 -13 3 -10 8 -20
15 -22 16 -2 1 10 1 25 1 15 0 22 -2 15 -4z m1170 -10 c20 -18 24 -33 7 -33
-5 0 -8 4 -5 9 8 12 -13 19 -49 15 l-30 -3 25 14 c32 18 30 18 52 -2z m-1921
-16 c-10 -9 -11 -8 -5 6 3 10 9 15 12 12 3 -3 0 -11 -7 -18z m1351 9 c7 4 8 2
4 -5 -9 -13 -26 -5 -25 12 0 9 2 8 6 -1 2 -6 10 -9 15 -6z m-1278 -17 c-3 -6
0 -15 7 -20 9 -6 10 -9 2 -9 -15 0 -26 17 -18 30 3 6 8 10 11 10 3 0 2 -5 -2
-11z m-47 -14 c0 -8 -4 -15 -9 -15 -4 0 -8 7 -8 15 0 8 4 15 8 15 5 0 9 -7 9
-15z m1843 11 c0 -2 -3 -12 -6 -20 -5 -13 -9 -14 -20 -5 -16 13 -9 29 12 29 8
0 14 -2 14 -4z m-1747 -27 c-8 -8 -13 -7 -18 2 -5 8 -4 10 3 5 7 -4 12 -2 12
5 0 7 3 9 7 6 4 -4 2 -12 -4 -18z m27 -3 c0 -2 -8 -10 -17 -17 -16 -13 -17
-12 -4 4 13 16 21 21 21 13z m35 -6 c-3 -5 -12 -10 -18 -10 -7 0 -6 4 3 10 19
12 23 12 15 0z m-80 -11 c11 -16 1 -19 -13 -3 -7 8 -8 14 -3 14 5 0 13 -5 16
-11z m1710 -19 c2 -22 2 -22 -19 -14 -12 5 -13 9 -3 24 13 22 20 18 22 -10z
m-1049 -19 c0 -11 -4 -17 -8 -15 -4 3 -8 0 -8 -6 0 -6 -5 -8 -12 -4 -9 6 -9 9
0 12 7 2 12 10 12 18 0 8 4 14 8 14 4 0 8 -9 8 -19z m-202 -78 c-32 -23 -36
-14 -12 28 l23 42 3 -29 c3 -18 -2 -32 -14 -41z m-375 -12 c-8 -36 -15 -51
-27 -51 -15 0 -15 -2 -2 -10 12 -7 12 -12 2 -22 -9 -9 -12 -9 -12 5 0 9 -5 17
-12 17 -7 0 -6 5 3 13 9 6 24 34 33 60 23 61 30 55 15 -12z m-225 17 c-3 -5
-12 -4 -20 3 -7 6 -11 15 -8 21 3 5 12 4 20 -3 7 -6 11 -15 8 -21z m785 -13
c0 -5 -4 -3 -9 5 -5 8 -9 22 -9 30 0 16 17 -16 18 -35z m-592 -1 c-6 -20 -13
-32 -14 -27 -4 11 14 63 21 63 2 0 -1 -16 -7 -36z m570 -36 c-3 -8 -6 -5 -6 6
-1 11 2 17 5 13 3 -3 4 -12 1 -19z m350 0 c-3 -8 -6 -5 -6 6 -1 11 2 17 5 13
3 -3 4 -12 1 -19z"/>
<path d="M1413 1259 c4 -14 2 -19 -7 -16 -7 3 -13 -1 -13 -8 0 -10 5 -11 18
-5 11 6 15 17 12 30 -3 11 -8 20 -10 20 -3 0 -3 -9 0 -21z"/>
<path d="M1395 1199 c-4 -6 -4 -13 -1 -16 3 -4 6 -1 6 6 0 8 6 11 16 7 8 -3
12 -2 9 4 -8 13 -22 13 -30 -1z"/>
<path d="M1606 1288 c3 -5 10 -6 15 -3 13 9 11 12 -6 12 -8 0 -12 -4 -9 -9z"/>
<path d="M279 1458 c-7 -25 -7 -48 0 -48 15 0 23 18 11 25 -6 4 -8 11 -5 16 4
5 4 9 1 9 -3 0 -6 -1 -7 -2z"/>
<path d="M289 1407 c-15 -7 -24 -18 -21 -26 3 -9 0 -11 -8 -6 -8 5 -11 4 -6
-3 3 -6 2 -13 -4 -17 -6 -4 -8 -11 -5 -16 4 -5 1 -9 -5 -9 -6 0 -9 -4 -6 -9 4
-5 0 -11 -6 -14 -18 -6 -5 -18 21 -20 14 -1 20 -6 16 -15 -3 -7 -5 -16 -5 -19
0 -2 -7 3 -16 11 -8 9 -20 16 -26 16 -6 0 -1 -8 10 -19 23 -20 20 -33 -6 -24
-14 4 -15 3 -2 -6 8 -5 11 -13 7 -17 -3 -4 -13 -1 -21 5 -11 9 -16 9 -22 0 -4
-7 -3 -9 3 -6 6 4 22 -7 37 -23 27 -30 34 -46 16 -35 -5 3 -10 2 -10 -4 0 -5
-9 -13 -20 -16 -11 -3 -20 -11 -20 -16 0 -5 11 -2 25 7 24 16 45 12 45 -7 0
-6 -5 -7 -10 -4 -6 4 -21 0 -34 -8 -17 -11 -26 -13 -34 -5 -7 7 -10 5 -7 -8 1
-11 8 -18 14 -16 7 1 11 -3 10 -10 -1 -7 -1 -20 0 -28 1 -13 3 -13 10 -1 6 9
6 22 0 33 -7 13 -4 20 13 29 18 10 24 8 36 -7 11 -15 13 -15 9 -2 -9 26 6 31
20 6 7 -13 12 -17 13 -10 0 7 -11 23 -23 35 -32 29 -24 45 18 41 l35 -2 -22
18 c-13 11 -18 19 -12 20 5 0 15 -5 22 -12 9 -9 15 -9 23 -1 8 8 7 13 -2 18
-8 5 -10 4 -5 -3 4 -7 3 -12 -3 -12 -21 0 -20 19 1 34 26 18 34 48 10 39 -10
-4 -13 -2 -8 5 4 7 14 12 23 12 13 0 13 3 3 15 -10 12 -10 15 0 15 8 0 10 3 7
6 -4 4 -13 2 -20 -5 -11 -9 -17 -8 -27 4 -10 12 -10 15 1 15 11 0 12 2 1 9
-10 6 -4 13 22 25 35 16 51 34 21 22 -9 -3 -19 3 -25 14 -12 23 -15 23 -51 7z
m4 -24 c-6 -16 -5 -17 12 -3 11 9 16 10 11 3 -4 -7 -3 -13 3 -13 5 0 12 6 14
13 4 9 6 9 6 0 1 -7 -8 -17 -18 -23 -11 -5 -18 -16 -17 -24 3 -23 27 -46 40
-39 6 3 3 -3 -8 -15 -17 -20 -17 -22 -2 -28 14 -5 11 -10 -15 -30 -18 -13 -36
-21 -40 -18 -5 3 -9 0 -9 -7 0 -7 -3 -10 -6 -6 -3 3 -1 14 5 24 8 14 11 15 11
3 1 -9 5 -6 10 7 7 16 14 21 27 16 15 -6 16 -5 3 9 -8 9 -17 12 -20 7 -3 -4
-12 -4 -20 1 -13 8 -12 10 2 10 9 0 20 5 24 12 5 8 2 9 -9 5 -21 -8 -32 10
-17 28 7 8 10 15 6 15 -3 0 -9 0 -13 0 -5 0 -9 -4 -9 -10 -1 -5 -2 -15 -3 -21
0 -5 -6 -7 -11 -4 -7 4 -6 14 2 28 6 12 11 24 11 27 0 6 28 50 33 50 2 0 0 -8
-3 -17z m-24 -154 c-14 -14 -18 -27 -13 -42 6 -21 5 -21 -11 -5 -17 16 -17 18
-1 42 9 14 23 26 31 26 11 0 10 -5 -6 -21z m21 -49 c0 -5 -4 -10 -10 -10 -5 0
-10 5 -10 10 0 6 5 10 10 10 6 0 10 -4 10 -10z"/>
<path d="M268 1351 c-7 -9 -8 -13 -4 -9 5 4 16 2 25 -4 9 -7 13 -8 9 -4 -4 5
-3 14 2 21 7 8 5 12 -5 12 -9 0 -21 -7 -27 -16z"/>
<path d="M285 1309 c-4 -6 -4 -13 -1 -16 3 -4 6 -1 6 7 0 10 3 10 15 0 8 -7
12 -17 8 -23 -4 -6 -1 -7 6 -3 9 6 8 13 -5 27 -20 22 -21 22 -29 8z"/>
<path d="M2397 1373 c-24 -42 -30 -63 -16 -63 5 0 11 0 14 0 3 0 4 1 3 3 -1 1
5 13 12 27 14 25 23 70 14 70 -3 0 -15 -17 -27 -37z m23 -6 c0 -2 -10 -12 -22
-23 l-23 -19 19 23 c18 21 26 27 26 19z"/>
<path d="M198 1253 c7 -3 16 -2 19 1 4 3 -2 6 -13 5 -11 0 -14 -3 -6 -6z"/>
<path d="M2498 1250 c15 -18 16 -54 0 -44 -7 4 -8 3 -4 -5 4 -6 12 -9 17 -6
15 10 10 42 -8 56 -15 11 -16 11 -5 -1z"/>
<path d="M1235 1230 c-3 -5 -3 -10 1 -10 4 0 -1 -10 -12 -22 -10 -12 -13 -18
-6 -14 6 4 12 3 12 -3 0 -5 -6 -12 -12 -14 -8 -4 -9 -6 -2 -6 17 -1 37 27 39
55 1 25 -9 32 -20 14z"/>
<path d="M1962 1205 l-23 -22 23 2 c13 1 28 -2 35 -7 20 -16 26 12 6 31 -17
16 -19 16 -41 -4z m48 -10 c0 -2 -9 -3 -19 -2 -11 0 -18 5 -15 9 4 6 34 0 34
-7z"/>
<path d="M1590 1216 c0 -2 7 -7 16 -10 8 -3 12 -2 9 4 -6 10 -25 14 -25 6z"/>
<path d="M2414 1183 c-14 -22 -14 -25 -2 -15 13 10 17 10 22 0 3 -7 3 -3 0 10
-3 12 -1 22 5 22 6 0 12 -4 12 -10 1 -5 2 -15 3 -22 0 -6 8 -13 16 -15 13 -4
13 -3 0 6 -8 6 -11 11 -7 11 10 0 -11 40 -22 40 -5 0 -17 -12 -27 -27z"/>
<path d="M2094 1185 c-4 -8 -10 -13 -14 -10 -5 3 -11 1 -15 -5 -4 -6 -11 -8
-16 -4 -6 3 -5 -3 3 -15 14 -23 24 -26 33 -11 8 13 25 13 25 1 0 -5 -9 -13
-21 -16 -11 -4 -18 -9 -16 -12 3 -2 14 0 25 6 15 8 22 8 26 -2 3 -6 4 -3 1 9
-3 13 1 27 11 35 15 12 16 11 10 -9 -7 -22 7 -31 19 -12 3 6 11 10 17 10 7 0
6 -6 -2 -15 -9 -10 -9 -15 -1 -15 6 0 11 5 11 10 0 6 11 3 24 -5 28 -18 46 -4
26 20 -22 26 2 16 27 -11 28 -31 53 -21 34 14 -9 17 -19 19 -70 17 -34 -1 -58
1 -56 6 3 4 -3 13 -14 18 -14 8 -22 7 -31 -4 -16 -19 -34 -19 -26 0 3 8 3 15
0 15 -2 0 -7 -7 -10 -15z m76 -12 c0 -3 -6 -3 -12 0 -7 2 -22 -3 -33 -12 -20
-16 -20 -16 -2 6 16 18 47 22 47 6z m-81 -20 c-6 -7 -15 -10 -20 -7 -13 8 -3
21 15 21 12 0 13 -4 5 -14z m137 -7 c10 -8 16 -17 13 -20 -3 -4 -17 2 -30 13
-27 23 -13 28 17 7z m68 -2 c9 -22 8 -24 -9 -18 -8 4 -15 12 -15 20 0 19 16
18 24 -2z"/>
<path d="M2476 1187 c3 -10 9 -15 12 -12 3 3 0 11 -7 18 -10 9 -11 8 -5 -6z"/>
<path d="M521 1176 c-7 -8 -10 -19 -7 -25 9 -14 -5 -42 -17 -34 -6 3 -7 1 -3
-6 4 -6 13 -8 19 -4 7 4 21 8 31 8 11 0 20 8 22 18 1 9 -2 17 -8 17 -6 0 -8
-7 -5 -14 4 -10 1 -13 -8 -9 -8 3 -13 9 -10 13 3 5 0 12 -6 16 -8 4 -7 9 2 15
7 4 11 11 8 14 -4 3 -12 -1 -18 -9z"/>
<path d="M1740 1168 c-12 -8 -12 -9 2 -5 9 3 19 1 22 -6 3 -9 5 -9 5 0 1 18
-13 23 -29 11z"/>
<path d="M1810 1169 c0 -15 18 -19 23 -6 3 8 -1 14 -9 14 -8 0 -14 -4 -14 -8z"/>
<path d="M190 1166 c0 -2 7 -6 15 -10 8 -3 15 -1 15 4 0 6 -7 10 -15 10 -8 0
-15 -2 -15 -4z"/>
<path d="M2515 1161 c-6 -11 13 -26 22 -17 4 3 1 6 -6 6 -7 0 -9 5 -6 10 3 6
4 10 1 10 -3 0 -7 -4 -11 -9z"/>
<path d="M173 1138 c-1 -11 1 -16 5 -12 4 5 11 12 15 15 5 3 2 9 -5 12 -9 3
-14 -3 -15 -15z"/>
<path d="M292 1138 c3 -7 12 -14 22 -14 13 -2 13 -1 1 3 -8 2 -13 9 -10 14 4
5 1 9 -5 9 -7 0 -10 -6 -8 -12z"/>
<path d="M1215 1140 c3 -5 8 -10 11 -10 2 0 4 5 4 10 0 6 -5 10 -11 10 -5 0
-7 -4 -4 -10z"/>
<path d="M1795 1140 c3 -5 8 -10 11 -10 2 0 4 5 4 10 0 6 -5 10 -11 10 -5 0
-7 -4 -4 -10z"/>
<path d="M2429 1133 c12 -8 25 -12 28 -9 4 3 1 6 -6 6 -7 0 -10 4 -7 8 2 4 -5
9 -16 9 -21 2 -21 2 1 -14z"/>
<path d="M624 1128 c-4 -7 -3 -10 1 -5 5 4 17 -1 28 -10 19 -17 20 -17 8 5
-13 25 -26 28 -37 10z"/>
<path d="M2391 1134 c-1 -7 7 -20 17 -31 9 -10 14 -14 10 -9 -12 15 -9 28 4
20 7 -4 8 -3 4 5 -4 6 -11 9 -16 6 -4 -3 -11 1 -13 7 -4 8 -6 9 -6 2z"/>
<path d="M2476 1131 c-3 -5 1 -11 9 -14 9 -4 12 -1 8 9 -6 16 -10 17 -17 5z"/>
<path d="M940 1126 c0 -2 8 -10 18 -17 15 -13 16 -12 3 4 -13 16 -21 21 -21
13z"/>
<path d="M2316 1113 c-6 -14 -5 -15 5 -6 7 7 10 15 7 18 -3 3 -9 -2 -12 -12z"/>
<path d="M2530 1120 c0 -5 5 -10 11 -10 5 0 7 5 4 10 -3 6 -8 10 -11 10 -2 0
-4 -4 -4 -10z"/>
<path d="M2146 1098 c3 -5 10 -6 15 -3 13 9 11 12 -6 12 -8 0 -12 -4 -9 -9z"/>
<path d="M2199 1093 c-12 -16 -12 -17 2 -6 9 7 20 9 24 5 5 -4 5 -1 1 6 -9 16
-11 15 -27 -5z"/>
<path d="M2250 1100 c0 -5 5 -10 10 -10 6 0 10 5 10 10 0 6 -4 10 -10 10 -5 0
-10 -4 -10 -10z"/>
<path d="M2340 1102 c0 -5 7 -9 15 -9 8 0 15 4 15 9 0 4 -7 8 -15 8 -8 0 -15
-4 -15 -8z"/>
<path d="M2280 1096 c0 -2 7 -7 16 -10 8 -3 12 -2 9 4 -6 10 -25 14 -25 6z"/>
<path d="M220 1080 c0 -5 7 -7 15 -4 8 4 15 8 15 10 0 2 -7 4 -15 4 -8 0 -15
-4 -15 -10z"/>
<path d="M2095 1080 c3 -5 8 -10 11 -10 2 0 4 5 4 10 0 6 -5 10 -11 10 -5 0
-7 -4 -4 -10z"/>
<path d="M2496 1067 c3 -10 9 -15 12 -12 3 3 0 11 -7 18 -10 9 -11 8 -5 -6z"/>
<path d="M248 1058 c7 -7 16 -7 28 0 14 8 13 10 -10 10 -18 0 -24 -4 -18 -10z"/>
<path d="M2420 1066 c0 -2 8 -10 18 -17 15 -13 16 -12 3 4 -13 16 -21 21 -21
13z"/>
<path d="M155 1039 l-20 -9 20 3 c12 2 25 -6 32 -18 7 -11 12 -15 13 -9 0 23
-25 42 -45 33z"/>
<path d="M235 1040 c3 -6 1 -10 -6 -10 -7 0 -10 -3 -6 -6 3 -3 13 -2 22 4 16
8 16 9 1 15 -10 4 -15 3 -11 -3z"/>
<path d="M280 1040 c-12 -7 -10 -9 7 -7 12 0 19 5 17 9 -6 10 -6 10 -24 -2z"/>
<path d="M390 1046 c0 -2 7 -7 16 -10 8 -3 12 -2 9 4 -6 10 -25 14 -25 6z"/>
<path d="M466 1042 c-3 -5 1 -9 9 -9 8 0 12 4 9 9 -3 4 -7 8 -9 8 -2 0 -6 -4
-9 -8z"/>
<path d="M2315 1041 c-3 -5 -2 -12 3 -15 5 -3 9 1 9 9 0 17 -3 19 -12 6z"/>
<path d="M153 985 c0 -8 4 -15 9 -15 4 0 8 4 8 9 0 6 -4 12 -8 15 -5 3 -9 -1
-9 -9z"/>
</g>
</svg>
